<svg xmlns="http://www.w3.org/2000/svg" viewBox="0 0 700 420" width="700" height="420" style="background-color: #ffffff; font-family: -apple-system, BlinkMacSystemFont, Segoe UI, Roboto, Helvetica, Arial, sans-serif;">
  <text x="350.0" y="35" text-anchor="middle" font-size="18" font-weight="bold" fill="#1e293b">Figure 1: Cryptographic Payload Overhead (The Lattice Tax)</text>
  <g transform="translate(100, 60)">
    <line x1="0" y1="290.0" x2="560" y2="290.0" stroke="#e2e8f0" stroke-width="1"/>
    <text x="-12" y="294.0" text-anchor="end" font-size="12" fill="#64748b">0 B</text>
    <line x1="0" y1="217.5" x2="560" y2="217.5" stroke="#e2e8f0" stroke-width="1"/>
    <text x="-12" y="221.5" text-anchor="end" font-size="12" fill="#64748b">1000 B</text>
    <line x1="0" y1="145.0" x2="560" y2="145.0" stroke="#e2e8f0" stroke-width="1"/>
    <text x="-12" y="149.0" text-anchor="end" font-size="12" fill="#64748b">2000 B</text>
    <line x1="0" y1="72.5" x2="560" y2="72.5" stroke="#e2e8f0" stroke-width="1"/>
    <text x="-12" y="76.5" text-anchor="end" font-size="12" fill="#64748b">3000 B</text>
    <line x1="0" y1="0.0" x2="560" y2="0.0" stroke="#e2e8f0" stroke-width="1"/>
    <text x="-12" y="4.0" text-anchor="end" font-size="12" fill="#64748b">4000 B</text>
    <line x1="0" y1="0" x2="0" y2="290" stroke="#94a3b8" stroke-width="1.5"/>
    <line x1="0" y1="290" x2="560" y2="290" stroke="#94a3b8" stroke-width="1.5"/>
    <rect x="68.33333333333333" y="285.36" width="50" height="4.64" fill="#1d4ed8" rx="2"/>
    <rect x="68.33333333333333" y="283.04" width="50" height="2.32" fill="#3b82f6" rx="2"/>
    <text x="93.33333333333333" y="265.04" text-anchor="middle" font-size="12" font-weight="bold" fill="#0f172a">96 B</text>
    <text x="93.33333333333333" y="278.04" text-anchor="middle" font-size="10" fill="#64748b">(1.0x baseline)</text>
    <text x="93.33333333333333" y="315" text-anchor="middle" font-size="13" font-weight="600" fill="#334155">Ed25519</text>
    <text x="93.33333333333333" y="332" text-anchor="middle" font-size="11" fill="#64748b">PK: 32B | Sig: 64B</text>
    <rect x="255.0" y="241.715" width="50" height="48.285000000000004" fill="#047857" rx="2"/>
    <rect x="255.0" y="176.6825" width="50" height="65.0325" fill="#10b981" rx="2"/>
    <text x="280.0" y="158.6825" text-anchor="middle" font-size="12" font-weight="bold" fill="#0f172a">1563 B</text>
    <text x="280.0" y="171.6825" text-anchor="middle" font-size="10" fill="#64748b">(16.3x)</text>
    <text x="280.0" y="315" text-anchor="middle" font-size="13" font-weight="600" fill="#334155">Falcon-512</text>
    <text x="280.0" y="332" text-anchor="middle" font-size="11" fill="#64748b">PK: 897B | Sig: 666B</text>
    <rect x="441.66666666666663" y="114.55000000000001" width="50" height="175.45" fill="#b45309" rx="2"/>
    <rect x="441.66666666666663" y="19.430000000000007" width="50" height="95.12" fill="#f59e0b" rx="2"/>
    <text x="466.66666666666663" y="1.4300000000000068" text-anchor="middle" font-size="12" font-weight="bold" fill="#0f172a">3732 B</text>
    <text x="466.66666666666663" y="14.430000000000007" text-anchor="middle" font-size="10" fill="#64748b">(38.9x)</text>
    <text x="466.66666666666663" y="315" text-anchor="middle" font-size="13" font-weight="600" fill="#334155">ML-DSA-44</text>
    <text x="466.66666666666663" y="332" text-anchor="middle" font-size="11" fill="#64748b">PK: 1312B | Sig: 2420B</text>
    <rect x="380" y="10" width="14" height="14" fill="#3b82f6" rx="2"/>
    <text x="400" y="22" font-size="11" fill="#334155">Public Key (Bytes)</text>
    <rect x="380" y="32" width="14" height="14" fill="#1d4ed8" rx="2"/>
    <text x="400" y="44" font-size="11" fill="#334155">Digital Signature</text>
  </g>
</svg>