<svg xmlns="http://www.w3.org/2000/svg" viewBox="0 0 680 360" width="680" height="360" style="background-color: #ffffff; font-family: -apple-system, BlinkMacSystemFont, Segoe UI, Roboto, Helvetica, Arial, sans-serif;">
  <text x="340.0" y="35" text-anchor="middle" font-size="18" font-weight="bold" fill="#1e293b">Figure 3: Epoch-Based Witness Pruning Storage Reduction</text>
  <g transform="translate(70, 60)">
    <text x="140" y="25" text-anchor="middle" font-size="14" font-weight="bold" fill="#1e293b">Full Archival Node</text>
    <text x="140" y="45" text-anchor="middle" font-size="12" fill="#64748b">Total: 1863.3 KB</text>
    <rect x="60" y="60" width="160" height="150" fill="#ef4444" rx="4"/>
    <text x="140" y="130" text-anchor="middle" font-size="12" font-weight="bold" fill="#ffffff">Witness Payload</text>
    <text x="140" y="150" text-anchor="middle" font-size="11" fill="#fee2e2">1832.0 KB (98.3%)</text>
    <rect x="60" y="215" width="160" height="25" fill="#3b82f6" rx="4"/>
    <text x="140" y="232" text-anchor="middle" font-size="11" font-weight="bold" fill="#ffffff">Intents: 31.2 KB</text>
    <path d="M 270 145 L 340 145 M 330 135 L 340 145 L 330 155" stroke="#64748b" stroke-width="2.5" fill="none"/>
    <text x="305" y="125" text-anchor="middle" font-size="12" font-weight="bold" fill="#10b981">Epoch Pruned</text>
    <text x="305" y="170" text-anchor="middle" font-size="13" font-weight="bold" fill="#047857">-98.3%</text>
    <text x="450" y="25" text-anchor="middle" font-size="14" font-weight="bold" fill="#1e293b">Pruned Validating Node</text>
    <text x="450" y="45" text-anchor="middle" font-size="12" fill="#64748b">Retained: 31.2 KB</text>
    <rect x="370" y="215" width="160" height="25" fill="#3b82f6" rx="4"/>
    <text x="450" y="232" text-anchor="middle" font-size="11" font-weight="bold" fill="#ffffff">Intents + Commitments</text>
    <rect x="370" y="60" width="160" height="150" fill="none" stroke="#cbd5e1" stroke-dasharray="6,4" stroke-width="2" rx="4"/>
    <text x="450" y="135" text-anchor="middle" font-size="12" fill="#94a3b8">Witness Data Purged</text>
    <text x="450" y="155" text-anchor="middle" font-size="11" fill="#94a3b8">(Commitment Root Retained)</text>
  </g>
</svg>